<svg width="160" height="56" viewBox="0 0 160 56" fill="none" xmlns="http://www.w3.org/2000/svg">
<rect y="-0.00189209" width="160" height="56" rx="28" fill="#894189"/>
<path d="M0 27.9981C0 12.5341 12.536 -0.00189209 28 -0.00189209H45.2619C50.9006 -0.00189209 54.7697 5.67515 52.708 10.9233L36.9682 50.9881C35.7808 54.0105 32.8645 55.9981 29.6172 55.9981H28C12.536 55.9981 0 43.4621 0 27.9981Z" fill="white" fill-opacity="0.07"/>
<path d="M38.6175 34.9981V20.4527H40.8121V33.1089H47.4031V34.9981H38.6175ZM49.7362 34.9981V24.089H51.8597V34.9981H49.7362ZM50.8086 22.4058C50.4393 22.4058 50.122 22.2827 49.8569 22.0365C49.5965 21.7855 49.4663 21.4872 49.4663 21.1416C49.4663 20.7912 49.5965 20.4929 49.8569 20.2467C50.122 19.9957 50.4393 19.8703 50.8086 19.8703C51.1779 19.8703 51.4928 19.9957 51.7532 20.2467C52.0183 20.4929 52.1509 20.7912 52.1509 21.1416C52.1509 21.4872 52.0183 21.7855 51.7532 22.0365C51.4928 22.2827 51.1779 22.4058 50.8086 22.4058ZM59.9084 24.089V25.7936H53.7436V24.089H59.9084ZM55.4339 34.9981V22.8248C55.4339 22.143 55.5831 21.5772 55.8814 21.1274C56.1797 20.6728 56.575 20.3343 57.0675 20.1117C57.5599 19.8845 58.0949 19.7708 58.6726 19.7708C59.0987 19.7708 59.4633 19.8063 59.7663 19.8774C60.0694 19.9437 60.2943 20.0052 60.4411 20.062L59.9439 21.7808C59.8445 21.7524 59.7166 21.7192 59.5604 21.6813C59.4041 21.6387 59.2147 21.6174 58.9922 21.6174C58.4761 21.6174 58.1068 21.7453 57.8842 22.0009C57.6664 22.2566 57.5575 22.6259 57.5575 23.1089V34.9981H55.4339ZM66.3714 35.2183C65.2966 35.2183 64.371 34.9886 63.5945 34.5294C62.8227 34.0653 62.2261 33.4143 61.8047 32.5762C61.388 31.7334 61.1797 30.7462 61.1797 29.6146C61.1797 28.4972 61.388 27.5123 61.8047 26.66C62.2261 25.8078 62.8132 25.1425 63.5661 24.6643C64.3236 24.1861 65.209 23.947 66.2223 23.947C66.8378 23.947 67.4344 24.0488 68.0121 24.2524C68.5897 24.456 69.1082 24.7756 69.5675 25.2112C70.0268 25.6468 70.389 26.2126 70.6541 26.9086C70.9193 27.5999 71.0518 28.4403 71.0518 29.4299V30.1828H62.38V28.5919H68.9709C68.9709 28.0331 68.8572 27.5384 68.63 27.1075C68.4027 26.6719 68.0831 26.3286 67.6712 26.0777C67.264 25.8267 66.7857 25.7012 66.2365 25.7012C65.6399 25.7012 65.1191 25.848 64.674 26.1416C64.2337 26.4304 63.8928 26.8092 63.6513 27.2779C63.4145 27.742 63.2962 28.2462 63.2962 28.7907V30.0336C63.2962 30.7628 63.424 31.3831 63.6797 31.8944C63.9401 32.4058 64.3023 32.7964 64.7663 33.0663C65.2304 33.3314 65.7725 33.464 66.3928 33.464C66.7952 33.464 67.1622 33.4072 67.4936 33.2936C67.825 33.1752 68.1115 33 68.353 32.768C68.5945 32.536 68.7791 32.2495 68.907 31.9086L70.9169 32.2708C70.7559 32.8627 70.4671 33.3812 70.0504 33.8262C69.6385 34.2666 69.12 34.6099 68.495 34.8561C67.8748 35.0975 67.1669 35.2183 66.3714 35.2183Z" fill="white"/>
<path d="M88.5858 37.8932L88.5777 37.8897L88.552 37.8757C88.4018 37.7931 88.2529 37.7083 88.1052 37.6214C86.3293 36.5661 84.6697 35.3265 83.1538 33.923C80.4693 31.4182 77.625 27.7012 77.625 23.1232C77.625 19.7072 80.4997 16.9982 83.9693 16.9982C84.9339 16.9935 85.8871 17.2063 86.758 17.6207C87.629 18.0352 88.3953 18.6407 89 19.3922C89.6048 18.6405 90.3713 18.035 91.2425 17.6205C92.1137 17.206 93.0671 16.9933 94.0318 16.9982C97.5003 16.9982 100.375 19.7072 100.375 23.1232C100.375 27.7024 97.5307 31.4194 94.8462 33.9219C93.3304 35.3253 91.6707 36.565 89.8948 37.6202C89.7471 37.7075 89.5982 37.7927 89.448 37.8757L89.4223 37.8897L89.4142 37.8944L89.4107 37.8955C89.2842 37.9625 89.1432 37.9976 89 37.9976C88.8568 37.9976 88.7158 37.9625 88.5893 37.8955L88.5858 37.8932Z" fill="white"/>
<path d="M98.8933 35.9649L102.083 29.7316H99.8833V25.6982L96.5833 31.9316H98.8933V35.9649ZM99.3333 38.1649C98.3189 38.1649 97.3656 37.9724 96.4733 37.5874C95.5811 37.2024 94.805 36.6799 94.145 36.0199C93.485 35.3599 92.9625 34.5838 92.5775 33.6916C92.1925 32.7993 92 31.846 92 30.8316C92 29.8171 92.1925 28.8638 92.5775 27.9716C92.9625 27.0793 93.485 26.3032 94.145 25.6432C94.805 24.9832 95.5811 24.4607 96.4733 24.0757C97.3656 23.6907 98.3189 23.4982 99.3333 23.4982C100.348 23.4982 101.301 23.6907 102.193 24.0757C103.086 24.4607 103.862 24.9832 104.522 25.6432C105.182 26.3032 105.704 27.0793 106.089 27.9716C106.474 28.8638 106.667 29.8171 106.667 30.8316C106.667 31.846 106.474 32.7993 106.089 33.6916C105.704 34.5838 105.182 35.3599 104.522 36.0199C103.862 36.6799 103.086 37.2024 102.193 37.5874C101.301 37.9724 100.348 38.1649 99.3333 38.1649Z" fill="#894189"/>
<path d="M99.2667 35.4982L102.167 29.8315H100.167V26.1649L97.1667 31.8315H99.2667V35.4982ZM99.6667 37.4982C98.7444 37.4982 97.8778 37.3232 97.0667 36.9732C96.2556 36.6232 95.55 36.1482 94.95 35.5482C94.35 34.9482 93.875 34.2426 93.525 33.4315C93.175 32.6204 93 31.7537 93 30.8315C93 29.9093 93.175 29.0426 93.525 28.2315C93.875 27.4204 94.35 26.7149 94.95 26.1149C95.55 25.5149 96.2556 25.0399 97.0667 24.6899C97.8778 24.3399 98.7444 24.1649 99.6667 24.1649C100.589 24.1649 101.456 24.3399 102.267 24.6899C103.078 25.0399 103.783 25.5149 104.383 26.1149C104.983 26.7149 105.458 27.4204 105.808 28.2315C106.158 29.0426 106.333 29.9093 106.333 30.8315C106.333 31.7537 106.158 32.6204 105.808 33.4315C105.458 34.2426 104.983 34.9482 104.383 35.5482C103.783 36.1482 103.078 36.6232 102.267 36.9732C101.456 37.3232 100.589 37.4982 99.6667 37.4982Z" fill="white"/>
<path d="M121.858 20.4527V34.9981H119.656V22.6544H119.571L116.091 24.9271V22.8248L119.72 20.4527H121.858Z" fill="white"/>
</svg>
